<svg viewbox="0 0 400 400" xmlns="http://www.w3.org/2000/svg">
<g transform="scale(1,-1) translate(0,-400)">
<polygon fill="none" points="175,135 175,190 185,200 225,200 225,125 185,125" stroke="black" stroke-width="3.125"/>
<polygon fill="none" points="150,125 150,200 175,225 225,225 225,300 250,300 250,100 175,100" stroke="black" stroke-width="3.125"/>
<polygon fill="none" points="220,280 192.5,307.5 192.5,317.5 212.5,337.5 250,300 230,280" stroke="black" stroke-width="2.209708691207961"/>
<polygon fill="none" points="212.5,262.5 175,300 175,325 200,350 162.5,387.5 175,400 275,300 237.5,262.5" stroke="black" stroke-width="2.209708691207961"/>
</g>
</svg>