<svg viewbox="0 0 400 400" xmlns="http://www.w3.org/2000/svg">
<g transform="scale(1,-1) translate(0,-400)">
<path d="M104 250.5 C140 148.75, 157.5 139.5, 278.75 94.5" fill="none" stroke="black" stroke-width="3.125"/>
<path d="M216 83 C257.5 89, 283.5 85.5, 325 75" fill="none" stroke="black" stroke-width="3.125"/>
<path d="M137.5 137.5 C168 123.5, 188 108, 216 83" fill="none" stroke="black" stroke-width="3.125"/>
<path d="M75 75 C102.5 102.5, 118.75 118.75, 137.5 137.5" fill="none" stroke="black" stroke-width="3.125"/>
<path d="M12.5 137.5 C37.5 112.5, 52.5 97.5, 75 75" fill="none" stroke="black" stroke-width="3.125"/>
<path d="M12.5 137.5 C26.5 168, 42 188, 67 216" fill="none" stroke="black" stroke-width="3.125"/>
<path d="M67 216 C88.75 163.75, 95 157.5, 137.5 137.5" fill="none" stroke="black" stroke-width="3.125"/>
<path d="M67 216 C61 257.5, 64.5 283.5, 75 325" fill="none" stroke="black" stroke-width="3.125"/>
<path d="M75 325 C101 309.5, 115.75 298.25, 133.5 274.5" fill="none" stroke="black" stroke-width="3.125"/>
<path d="M133.5 274.5 C167 237.5, 133 210, 169.25 169.25" fill="none" stroke="black" stroke-width="3.125"/>
<path d="M169.25 169.25 C175 162.5, 187.5 150, 200 137.5" fill="none" stroke="black" stroke-width="3.125"/>
<path d="M200 137.5 C222.25 129.25, 240 127, 266.5 125.5" fill="none" stroke="black" stroke-width="3.125"/>
<path d="M266.5 125.5 C284.25 101.75, 299 90.5, 325 75" fill="none" stroke="black" stroke-width="3.125"/>
<path d="M133.5 274.5 C160 273, 177.75 270.75, 200 262.5" fill="none" stroke="black" stroke-width="3.125"/>
<path d="M200 262.5 C200 231.25, 200 218.75, 200 200" fill="none" stroke="black" stroke-width="3.125"/>
<path d="M200 200 C190 190, 177.5 177.5, 169.25 169.25" fill="none" stroke="black" stroke-width="3.125"/>
<path d="M153.75 252.5 C169.5 258, 181.5 256.5, 196.75 248" fill="none" stroke="black" stroke-width="3.125"/>
<path d="M160 226.25 C175 235.5, 183.75 236.75, 197.25 231.5" fill="none" stroke="black" stroke-width="3.125"/>
<path d="M162 200.5 C175 216, 180.5 217, 197.25 215.75" fill="none" stroke="black" stroke-width="3.125"/>
<path d="M187.75 179.5 C191.25 175, 195 171.25, 197.5 170.25" fill="none" stroke="black" stroke-width="3.125"/>
<path d="M180.25 172 C185 162.5, 188.75 158.75, 198 156.25" fill="none" stroke="black" stroke-width="3.125"/>
<path d="M32.5 134.25 C43.75 163.75, 58.75 176.25, 75.5 184" fill="none" stroke="black" stroke-width="3.125"/>
<path d="M44.75 122 C60 150, 67.5 157.5, 85 168.75" fill="none" stroke="black" stroke-width="3.125"/>
<path d="M60.5 106.25 C72.5 135, 82.5 145, 100 155.25" fill="none" stroke="black" stroke-width="3.125"/>
<path d="M69.5 90.75 C90 125, 100 135, 115 145.5" fill="none" stroke="black" stroke-width="3.125"/>
<path d="M88.25 239.5 C93.75 244.25, 96.25 246.75, 99.5 250" fill="none" stroke="black" stroke-width="3.125"/>
<path d="M88.25 239.5 C85.5 252.5, 85.5 265, 88.25 279.75" fill="none" stroke="black" stroke-width="3.125"/>
<path d="M88.25 279.75 C96.25 278, 98 263, 99.5 250" fill="none" stroke="black" stroke-width="3.125"/>
<path d="M107.5 254.5 C112.5 257.5, 118.75 261.25, 121.75 263" fill="none" stroke="black" stroke-width="3.125"/>
<path d="M107.5 254.5 C102.5 273.75, 102.5 277.5, 103 286.25" fill="none" stroke="black" stroke-width="3.125"/>
<path d="M103 286.25 C112.5 276.25, 118 270, 121.75 263" fill="none" stroke="black" stroke-width="3.125"/>
</g>
</svg>