<svg viewbox="0 0 400 400" xmlns="http://www.w3.org/2000/svg">
<g transform="scale(1,-1) translate(0,-400)">
<path d="M104 250.5 C140 148.75, 157.5 139.5, 278.75 94.5" fill="none" stroke="black" stroke-width="3.125"/>
<path d="M216 83 C257.5 89, 283.5 85.5, 325 75" fill="none" stroke="black" stroke-width="3.125"/>
<path d="M137.5 137.5 C168 123.5, 188 108, 216 83" fill="none" stroke="black" stroke-width="3.125"/>
<path d="M75 75 C102.5 102.5, 118.75 118.75, 137.5 137.5" fill="none" stroke="black" stroke-width="3.125"/>
<path d="M12.5 137.5 C37.5 112.5, 52.5 97.5, 75 75" fill="none" stroke="black" stroke-width="3.125"/>
<path d="M12.5 137.5 C26.5 168, 42 188, 67 216" fill="none" stroke="black" stroke-width="3.125"/>
<path d="M67 216 C88.75 163.75, 95 157.5, 137.5 137.5" fill="none" stroke="black" stroke-width="3.125"/>
<path d="M67 216 C61 257.5, 64.5 283.5, 75 325" fill="none" stroke="black" stroke-width="3.125"/>
<path d="M75 325 C101 309.5, 115.75 298.25, 133.5 274.5" fill="none" stroke="black" stroke-width="3.125"/>
<path d="M133.5 274.5 C167 237.5, 133 210, 169.25 169.25" fill="none" stroke="black" stroke-width="3.125"/>
<path d="M169.25 169.25 C175 162.5, 187.5 150, 200 137.5" fill="none" stroke="black" stroke-width="3.125"/>
<path d="M200 137.5 C222.25 129.25, 240 127, 266.5 125.5" fill="none" stroke="black" stroke-width="3.125"/>
<path d="M266.5 125.5 C284.25 101.75, 299 90.5, 325 75" fill="none" stroke="black" stroke-width="3.125"/>
<path d="M133.5 274.5 C160 273, 177.75 270.75, 200 262.5" fill="none" stroke="black" stroke-width="3.125"/>
<path d="M200 262.5 C200 231.25, 200 218.75, 200 200" fill="none" stroke="black" stroke-width="3.125"/>
<path d="M200 200 C190 190, 177.5 177.5, 169.25 169.25" fill="none" stroke="black" stroke-width="3.125"/>
<path d="M153.75 252.5 C169.5 258, 181.5 256.5, 196.75 248" fill="none" stroke="black" stroke-width="3.125"/>
<path d="M160 226.25 C175 235.5, 183.75 236.75, 197.25 231.5" fill="none" stroke="black" stroke-width="3.125"/>
<path d="M162 200.5 C175 216, 180.5 217, 197.25 215.75" fill="none" stroke="black" stroke-width="3.125"/>
<path d="M187.75 179.5 C191.25 175, 195 171.25, 197.5 170.25" fill="none" stroke="black" stroke-width="3.125"/>
<path d="M180.25 172 C185 162.5, 188.75 158.75, 198 156.25" fill="none" stroke="black" stroke-width="3.125"/>
<path d="M32.5 134.25 C43.75 163.75, 58.75 176.25, 75.5 184" fill="none" stroke="black" stroke-width="3.125"/>
<path d="M44.75 122 C60 150, 67.5 157.5, 85 168.75" fill="none" stroke="black" stroke-width="3.125"/>
<path d="M60.5 106.25 C72.5 135, 82.5 145, 100 155.25" fill="none" stroke="black" stroke-width="3.125"/>
<path d="M69.5 90.75 C90 125, 100 135, 115 145.5" fill="none" stroke="black" stroke-width="3.125"/>
<path d="M88.25 239.5 C93.75 244.25, 96.25 246.75, 99.5 250" fill="none" stroke="black" stroke-width="3.125"/>
<path d="M88.25 239.5 C85.5 252.5, 85.5 265, 88.25 279.75" fill="none" stroke="black" stroke-width="3.125"/>
<path d="M88.25 279.75 C96.25 278, 98 263, 99.5 250" fill="none" stroke="black" stroke-width="3.125"/>
<path d="M107.5 254.5 C112.5 257.5, 118.75 261.25, 121.75 263" fill="none" stroke="black" stroke-width="3.125"/>
<path d="M107.5 254.5 C102.5 273.75, 102.5 277.5, 103 286.25" fill="none" stroke="black" stroke-width="3.125"/>
<path d="M103 286.25 C112.5 276.25, 118 270, 121.75 263" fill="none" stroke="black" stroke-width="3.125"/>
<path d="M273.25 302.25 C204.375 269.375, 191 273.5, 107.875 311.625" fill="none" stroke="black" stroke-width="2.209708691207961"/>
<path d="M133.5 274.5 C115.75 298.25, 101 309.5, 75 325" fill="none" stroke="black" stroke-width="2.209708691207961"/>
<path d="M200 262.5 C177.75 270.75, 160 273, 133.5 274.5" fill="none" stroke="black" stroke-width="2.209708691207961"/>
<path d="M200 200 C200 227.5, 200 243.75, 200 262.5" fill="none" stroke="black" stroke-width="2.209708691207961"/>
<path d="M262.5 200 C237.5 200, 222.5 200, 200 200" fill="none" stroke="black" stroke-width="2.209708691207961"/>
<path d="M262.5 200 C270.75 222.25, 273 240, 274.5 266.5" fill="none" stroke="black" stroke-width="2.209708691207961"/>
<path d="M274.5 266.5 C237.5 251.25, 231.25 251.25, 200 262.5" fill="none" stroke="black" stroke-width="2.209708691207961"/>
<path d="M274.5 266.5 C298.25 284.25, 309.5 299, 325 325" fill="none" stroke="black" stroke-width="2.209708691207961"/>
<path d="M325 325 C304.25 330.25, 291.25 332, 270.5 329" fill="none" stroke="black" stroke-width="2.209708691207961"/>
<path d="M270.5 329 C235.25 327.25, 238.5 296.5, 200 294.25" fill="none" stroke="black" stroke-width="2.209708691207961"/>
<path d="M200 294.25 C193.75 293.75, 181.25 293.75, 168.75 293.75" fill="none" stroke="black" stroke-width="2.209708691207961"/>
<path d="M168.75 293.75 C153.5 300.75, 143.5 308.5, 129.5 321" fill="none" stroke="black" stroke-width="2.209708691207961"/>
<path d="M129.5 321 C108.75 318, 95.75 319.75, 75 325" fill="none" stroke="black" stroke-width="2.209708691207961"/>
<path d="M270.5 329 C256.5 341.5, 246.5 349.25, 231.25 356.25" fill="none" stroke="black" stroke-width="2.209708691207961"/>
<path d="M231.25 356.25 C215.625 340.625, 209.375 334.375, 200 325" fill="none" stroke="black" stroke-width="2.209708691207961"/>
<path d="M200 325 C200 315, 200 302.5, 200 294.25" fill="none" stroke="black" stroke-width="2.209708691207961"/>
<path d="M249.375 328.125 C244.25 338.75, 237.5 344, 225.625 347.375" fill="none" stroke="black" stroke-width="2.209708691207961"/>
<path d="M233.125 318.125 C230.25 330.25, 226.5 335.25, 217.125 339.375" fill="none" stroke="black" stroke-width="2.209708691207961"/>
<path d="M219.25 306.25 C220.5 320.5, 218.25 323.75, 209.25 331.5" fill="none" stroke="black" stroke-width="2.209708691207961"/>
<path d="M195.875 308.625 C191.875 308.125, 188.125 308.125, 186.375 308.875" fill="none" stroke="black" stroke-width="2.209708691207961"/>
<path d="M195.875 301.125 C188.75 298.75, 185 298.75, 179.125 302.125" fill="none" stroke="black" stroke-width="2.209708691207961"/>
<path d="M250.875 208.375 C260 228.75, 258.75 242.5, 254.25 254.75" fill="none" stroke="black" stroke-width="2.209708691207961"/>
<path d="M238.625 208.375 C245 230, 245 237.5, 241.875 251.875" fill="none" stroke="black" stroke-width="2.209708691207961"/>
<path d="M222.875 208.375 C231.25 228.75, 231.25 238.75, 227.625 252.625" fill="none" stroke="black" stroke-width="2.209708691207961"/>
<path d="M210.625 205.125 C217.5 232.5, 217.5 242.5, 215.25 255.25" fill="none" stroke="black" stroke-width="2.209708691207961"/>
<path d="M275.625 288.875 C275.25 294, 275.25 296.5, 275.25 299.75" fill="none" stroke="black" stroke-width="2.209708691207961"/>
<path d="M275.625 288.875 C283.5 294, 289.75 300.25, 295.75 309" fill="none" stroke="black" stroke-width="2.209708691207961"/>
<path d="M295.75 309 C290.875 312.125, 282.5 305.5, 275.25 299.75" fill="none" stroke="black" stroke-width="2.209708691207961"/>
<path d="M273.5 306 C272.5 310, 271.25 315, 270.625 317.375" fill="none" stroke="black" stroke-width="2.209708691207961"/>
<path d="M273.5 306 C285.625 313.125, 287.5 315, 291.625 319.625" fill="none" stroke="black" stroke-width="2.209708691207961"/>
<path d="M291.625 319.625 C281.875 319.375, 276 319, 270.625 317.375" fill="none" stroke="black" stroke-width="2.209708691207961"/>
<path d="M302.25 126.75 C269.375 195.625, 273.5 209, 311.625 292.125" fill="none" stroke="black" stroke-width="2.209708691207961"/>
<path d="M274.5 266.5 C298.25 284.25, 309.5 299, 325 325" fill="none" stroke="black" stroke-width="2.209708691207961"/>
<path d="M262.5 200 C270.75 222.25, 273 240, 274.5 266.5" fill="none" stroke="black" stroke-width="2.209708691207961"/>
<path d="M200 200 C227.5 200, 243.75 200, 262.5 200" fill="none" stroke="black" stroke-width="2.209708691207961"/>
<path d="M200 137.5 C200 162.5, 200 177.5, 200 200" fill="none" stroke="black" stroke-width="2.209708691207961"/>
<path d="M200 137.5 C222.25 129.25, 240 127, 266.5 125.5" fill="none" stroke="black" stroke-width="2.209708691207961"/>
<path d="M266.5 125.5 C251.25 162.5, 251.25 168.75, 262.5 200" fill="none" stroke="black" stroke-width="2.209708691207961"/>
<path d="M266.5 125.5 C284.25 101.75, 299 90.5, 325 75" fill="none" stroke="black" stroke-width="2.209708691207961"/>
<path d="M325 75 C330.25 95.75, 332 108.75, 329 129.5" fill="none" stroke="black" stroke-width="2.209708691207961"/>
<path d="M329 129.5 C327.25 164.75, 296.5 161.5, 294.25 200" fill="none" stroke="black" stroke-width="2.209708691207961"/>
<path d="M294.25 200 C293.75 206.25, 293.75 218.75, 293.75 231.25" fill="none" stroke="black" stroke-width="2.209708691207961"/>
<path d="M293.75 231.25 C300.75 246.5, 308.5 256.5, 321 270.5" fill="none" stroke="black" stroke-width="2.209708691207961"/>
<path d="M321 270.5 C318 291.25, 319.75 304.25, 325 325" fill="none" stroke="black" stroke-width="2.209708691207961"/>
<path d="M329 129.5 C341.5 143.5, 349.25 153.5, 356.25 168.75" fill="none" stroke="black" stroke-width="2.209708691207961"/>
<path d="M356.25 168.75 C340.625 184.375, 334.375 190.625, 325 200" fill="none" stroke="black" stroke-width="2.209708691207961"/>
<path d="M325 200 C315 200, 302.5 200, 294.25 200" fill="none" stroke="black" stroke-width="2.209708691207961"/>
<path d="M328.125 150.625 C338.75 155.75, 344 162.5, 347.375 174.375" fill="none" stroke="black" stroke-width="2.209708691207961"/>
<path d="M318.125 166.875 C330.25 169.75, 335.25 173.5, 339.375 182.875" fill="none" stroke="black" stroke-width="2.209708691207961"/>
<path d="M306.25 180.75 C320.5 179.5, 323.75 181.75, 331.5 190.75" fill="none" stroke="black" stroke-width="2.209708691207961"/>
<path d="M308.625 204.125 C308.125 208.125, 308.125 211.875, 308.875 213.625" fill="none" stroke="black" stroke-width="2.209708691207961"/>
<path d="M301.125 204.125 C298.75 211.25, 298.75 215, 302.125 220.875" fill="none" stroke="black" stroke-width="2.209708691207961"/>
<path d="M208.375 149.125 C228.75 140, 242.5 141.25, 254.75 145.75" fill="none" stroke="black" stroke-width="2.209708691207961"/>
<path d="M208.375 161.375 C230 155, 237.5 155, 251.875 158.125" fill="none" stroke="black" stroke-width="2.209708691207961"/>
<path d="M208.375 177.125 C228.75 168.75, 238.75 168.75, 252.625 172.375" fill="none" stroke="black" stroke-width="2.209708691207961"/>
<path d="M205.125 189.375 C232.5 182.5, 242.5 182.5, 255.25 184.75" fill="none" stroke="black" stroke-width="2.209708691207961"/>
<path d="M288.875 124.375 C294 124.75, 296.5 124.75, 299.75 124.75" fill="none" stroke="black" stroke-width="2.209708691207961"/>
<path d="M288.875 124.375 C294 116.5, 300.25 110.25, 309 104.25" fill="none" stroke="black" stroke-width="2.209708691207961"/>
<path d="M309 104.25 C312.125 109.125, 305.5 117.5, 299.75 124.75" fill="none" stroke="black" stroke-width="2.209708691207961"/>
<path d="M306 126.5 C310 127.5, 315 128.75, 317.375 129.375" fill="none" stroke="black" stroke-width="2.209708691207961"/>
<path d="M306 126.5 C313.125 114.375, 315 112.5, 319.625 108.375" fill="none" stroke="black" stroke-width="2.209708691207961"/>
<path d="M319.625 108.375 C319.375 118.125, 319 124, 317.375 129.375" fill="none" stroke="black" stroke-width="2.209708691207961"/>
</g>
</svg>