<svg viewbox="0 0 400 400" xmlns="http://www.w3.org/2000/svg">
<g transform="scale(1,-1) translate(0,-400)">
<path d="M273.25 302.25 C204.375 269.375, 191 273.5, 107.875 311.625" fill="none" stroke="black" stroke-width="2.209708691207961"/>
<path d="M133.5 274.5 C115.75 298.25, 101 309.5, 75 325" fill="none" stroke="black" stroke-width="2.209708691207961"/>
<path d="M200 262.5 C177.75 270.75, 160 273, 133.5 274.5" fill="none" stroke="black" stroke-width="2.209708691207961"/>
<path d="M200 200 C200 227.5, 200 243.75, 200 262.5" fill="none" stroke="black" stroke-width="2.209708691207961"/>
<path d="M262.5 200 C237.5 200, 222.5 200, 200 200" fill="none" stroke="black" stroke-width="2.209708691207961"/>
<path d="M262.5 200 C270.75 222.25, 273 240, 274.5 266.5" fill="none" stroke="black" stroke-width="2.209708691207961"/>
<path d="M274.5 266.5 C237.5 251.25, 231.25 251.25, 200 262.5" fill="none" stroke="black" stroke-width="2.209708691207961"/>
<path d="M274.5 266.5 C298.25 284.25, 309.5 299, 325 325" fill="none" stroke="black" stroke-width="2.209708691207961"/>
<path d="M325 325 C304.25 330.25, 291.25 332, 270.5 329" fill="none" stroke="black" stroke-width="2.209708691207961"/>
<path d="M270.5 329 C235.25 327.25, 238.5 296.5, 200 294.25" fill="none" stroke="black" stroke-width="2.209708691207961"/>
<path d="M200 294.25 C193.75 293.75, 181.25 293.75, 168.75 293.75" fill="none" stroke="black" stroke-width="2.209708691207961"/>
<path d="M168.75 293.75 C153.5 300.75, 143.5 308.5, 129.5 321" fill="none" stroke="black" stroke-width="2.209708691207961"/>
<path d="M129.5 321 C108.75 318, 95.75 319.75, 75 325" fill="none" stroke="black" stroke-width="2.209708691207961"/>
<path d="M270.5 329 C256.5 341.5, 246.5 349.25, 231.25 356.25" fill="none" stroke="black" stroke-width="2.209708691207961"/>
<path d="M231.25 356.25 C215.625 340.625, 209.375 334.375, 200 325" fill="none" stroke="black" stroke-width="2.209708691207961"/>
<path d="M200 325 C200 315, 200 302.5, 200 294.25" fill="none" stroke="black" stroke-width="2.209708691207961"/>
<path d="M249.375 328.125 C244.25 338.75, 237.5 344, 225.625 347.375" fill="none" stroke="black" stroke-width="2.209708691207961"/>
<path d="M233.125 318.125 C230.25 330.25, 226.5 335.25, 217.125 339.375" fill="none" stroke="black" stroke-width="2.209708691207961"/>
<path d="M219.25 306.25 C220.5 320.5, 218.25 323.75, 209.25 331.5" fill="none" stroke="black" stroke-width="2.209708691207961"/>
<path d="M195.875 308.625 C191.875 308.125, 188.125 308.125, 186.375 308.875" fill="none" stroke="black" stroke-width="2.209708691207961"/>
<path d="M195.875 301.125 C188.75 298.75, 185 298.75, 179.125 302.125" fill="none" stroke="black" stroke-width="2.209708691207961"/>
<path d="M250.875 208.375 C260 228.75, 258.75 242.5, 254.25 254.75" fill="none" stroke="black" stroke-width="2.209708691207961"/>
<path d="M238.625 208.375 C245 230, 245 237.5, 241.875 251.875" fill="none" stroke="black" stroke-width="2.209708691207961"/>
<path d="M222.875 208.375 C231.25 228.75, 231.25 238.75, 227.625 252.625" fill="none" stroke="black" stroke-width="2.209708691207961"/>
<path d="M210.625 205.125 C217.5 232.5, 217.5 242.5, 215.25 255.25" fill="none" stroke="black" stroke-width="2.209708691207961"/>
<path d="M275.625 288.875 C275.25 294, 275.25 296.5, 275.25 299.75" fill="none" stroke="black" stroke-width="2.209708691207961"/>
<path d="M275.625 288.875 C283.5 294, 289.75 300.25, 295.75 309" fill="none" stroke="black" stroke-width="2.209708691207961"/>
<path d="M295.75 309 C290.875 312.125, 282.5 305.5, 275.25 299.75" fill="none" stroke="black" stroke-width="2.209708691207961"/>
<path d="M273.5 306 C272.5 310, 271.25 315, 270.625 317.375" fill="none" stroke="black" stroke-width="2.209708691207961"/>
<path d="M273.5 306 C285.625 313.125, 287.5 315, 291.625 319.625" fill="none" stroke="black" stroke-width="2.209708691207961"/>
<path d="M291.625 319.625 C281.875 319.375, 276 319, 270.625 317.375" fill="none" stroke="black" stroke-width="2.209708691207961"/>
<path d="M97.75 273.25 C130.625 204.375, 126.5 191, 88.375 107.875" fill="none" stroke="black" stroke-width="2.209708691207961"/>
<path d="M125.5 133.5 C101.75 115.75, 90.5 101, 75 75" fill="none" stroke="black" stroke-width="2.209708691207961"/>
<path d="M137.5 200 C129.25 177.75, 127 160, 125.5 133.5" fill="none" stroke="black" stroke-width="2.209708691207961"/>
<path d="M200 200 C172.5 200, 156.25 200, 137.5 200" fill="none" stroke="black" stroke-width="2.209708691207961"/>
<path d="M200 262.5 C200 237.5, 200 222.5, 200 200" fill="none" stroke="black" stroke-width="2.209708691207961"/>
<path d="M200 262.5 C177.75 270.75, 160 273, 133.5 274.5" fill="none" stroke="black" stroke-width="2.209708691207961"/>
<path d="M133.5 274.5 C148.75 237.5, 148.75 231.25, 137.5 200" fill="none" stroke="black" stroke-width="2.209708691207961"/>
<path d="M133.5 274.5 C115.75 298.25, 101 309.5, 75 325" fill="none" stroke="black" stroke-width="2.209708691207961"/>
<path d="M75 325 C69.75 304.25, 68 291.25, 71 270.5" fill="none" stroke="black" stroke-width="2.209708691207961"/>
<path d="M71 270.5 C72.75 235.25, 103.5 238.5, 105.75 200" fill="none" stroke="black" stroke-width="2.209708691207961"/>
<path d="M105.75 200 C106.25 193.75, 106.25 181.25, 106.25 168.75" fill="none" stroke="black" stroke-width="2.209708691207961"/>
<path d="M106.25 168.75 C99.25 153.5, 91.5 143.5, 79 129.5" fill="none" stroke="black" stroke-width="2.209708691207961"/>
<path d="M79 129.5 C82 108.75, 80.25 95.75, 75 75" fill="none" stroke="black" stroke-width="2.209708691207961"/>
<path d="M71 270.5 C58.5 256.5, 50.75 246.5, 43.75 231.25" fill="none" stroke="black" stroke-width="2.209708691207961"/>
<path d="M43.75 231.25 C59.375 215.625, 65.625 209.375, 75 200" fill="none" stroke="black" stroke-width="2.209708691207961"/>
<path d="M75 200 C85 200, 97.5 200, 105.75 200" fill="none" stroke="black" stroke-width="2.209708691207961"/>
<path d="M71.875 249.375 C61.25 244.25, 56 237.5, 52.625 225.625" fill="none" stroke="black" stroke-width="2.209708691207961"/>
<path d="M81.875 233.125 C69.75 230.25, 64.75 226.5, 60.625 217.125" fill="none" stroke="black" stroke-width="2.209708691207961"/>
<path d="M93.75 219.25 C79.5 220.5, 76.25 218.25, 68.5 209.25" fill="none" stroke="black" stroke-width="2.209708691207961"/>
<path d="M91.375 195.875 C91.875 191.875, 91.875 188.125, 91.125 186.375" fill="none" stroke="black" stroke-width="2.209708691207961"/>
<path d="M98.875 195.875 C101.25 188.75, 101.25 185, 97.875 179.125" fill="none" stroke="black" stroke-width="2.209708691207961"/>
<path d="M191.625 250.875 C171.25 260, 157.5 258.75, 145.25 254.25" fill="none" stroke="black" stroke-width="2.209708691207961"/>
<path d="M191.625 238.625 C170 245, 162.5 245, 148.125 241.875" fill="none" stroke="black" stroke-width="2.209708691207961"/>
<path d="M191.625 222.875 C171.25 231.25, 161.25 231.25, 147.375 227.625" fill="none" stroke="black" stroke-width="2.209708691207961"/>
<path d="M194.875 210.625 C167.5 217.5, 157.5 217.5, 144.75 215.25" fill="none" stroke="black" stroke-width="2.209708691207961"/>
<path d="M111.125 275.625 C106 275.25, 103.5 275.25, 100.25 275.25" fill="none" stroke="black" stroke-width="2.209708691207961"/>
<path d="M111.125 275.625 C106 283.5, 99.75 289.75, 91 295.75" fill="none" stroke="black" stroke-width="2.209708691207961"/>
<path d="M91 295.75 C87.875 290.875, 94.5 282.5, 100.25 275.25" fill="none" stroke="black" stroke-width="2.209708691207961"/>
<path d="M94 273.5 C90 272.5, 85 271.25, 82.625 270.625" fill="none" stroke="black" stroke-width="2.209708691207961"/>
<path d="M94 273.5 C86.875 285.625, 85 287.5, 80.375 291.625" fill="none" stroke="black" stroke-width="2.209708691207961"/>
<path d="M80.375 291.625 C80.625 281.875, 81 276, 82.625 270.625" fill="none" stroke="black" stroke-width="2.209708691207961"/>
<path d="M126.75 97.75 C195.625 130.625, 209 126.5, 292.125 88.375" fill="none" stroke="black" stroke-width="2.209708691207961"/>
<path d="M266.5 125.5 C284.25 101.75, 299 90.5, 325 75" fill="none" stroke="black" stroke-width="2.209708691207961"/>
<path d="M200 137.5 C222.25 129.25, 240 127, 266.5 125.5" fill="none" stroke="black" stroke-width="2.209708691207961"/>
<path d="M200 200 C200 172.5, 200 156.25, 200 137.5" fill="none" stroke="black" stroke-width="2.209708691207961"/>
<path d="M137.5 200 C162.5 200, 177.5 200, 200 200" fill="none" stroke="black" stroke-width="2.209708691207961"/>
<path d="M137.5 200 C129.25 177.75, 127 160, 125.5 133.5" fill="none" stroke="black" stroke-width="2.209708691207961"/>
<path d="M125.5 133.5 C162.5 148.75, 168.75 148.75, 200 137.5" fill="none" stroke="black" stroke-width="2.209708691207961"/>
<path d="M125.5 133.5 C101.75 115.75, 90.5 101, 75 75" fill="none" stroke="black" stroke-width="2.209708691207961"/>
<path d="M75 75 C95.75 69.75, 108.75 68, 129.5 71" fill="none" stroke="black" stroke-width="2.209708691207961"/>
<path d="M129.5 71 C164.75 72.75, 161.5 103.5, 200 105.75" fill="none" stroke="black" stroke-width="2.209708691207961"/>
<path d="M200 105.75 C206.25 106.25, 218.75 106.25, 231.25 106.25" fill="none" stroke="black" stroke-width="2.209708691207961"/>
<path d="M231.25 106.25 C246.5 99.25, 256.5 91.5, 270.5 79" fill="none" stroke="black" stroke-width="2.209708691207961"/>
<path d="M270.5 79 C291.25 82, 304.25 80.25, 325 75" fill="none" stroke="black" stroke-width="2.209708691207961"/>
<path d="M129.5 71 C143.5 58.5, 153.5 50.75, 168.75 43.75" fill="none" stroke="black" stroke-width="2.209708691207961"/>
<path d="M168.75 43.75 C184.375 59.375, 190.625 65.625, 200 75" fill="none" stroke="black" stroke-width="2.209708691207961"/>
<path d="M200 75 C200 85, 200 97.5, 200 105.75" fill="none" stroke="black" stroke-width="2.209708691207961"/>
<path d="M150.625 71.875 C155.75 61.25, 162.5 56, 174.375 52.625" fill="none" stroke="black" stroke-width="2.209708691207961"/>
<path d="M166.875 81.875 C169.75 69.75, 173.5 64.75, 182.875 60.625" fill="none" stroke="black" stroke-width="2.209708691207961"/>
<path d="M180.75 93.75 C179.5 79.5, 181.75 76.25, 190.75 68.5" fill="none" stroke="black" stroke-width="2.209708691207961"/>
<path d="M204.125 91.375 C208.125 91.875, 211.875 91.875, 213.625 91.125" fill="none" stroke="black" stroke-width="2.209708691207961"/>
<path d="M204.125 98.875 C211.25 101.25, 215 101.25, 220.875 97.875" fill="none" stroke="black" stroke-width="2.209708691207961"/>
<path d="M149.125 191.625 C140 171.25, 141.25 157.5, 145.75 145.25" fill="none" stroke="black" stroke-width="2.209708691207961"/>
<path d="M161.375 191.625 C155 170, 155 162.5, 158.125 148.125" fill="none" stroke="black" stroke-width="2.209708691207961"/>
<path d="M177.125 191.625 C168.75 171.25, 168.75 161.25, 172.375 147.375" fill="none" stroke="black" stroke-width="2.209708691207961"/>
<path d="M189.375 194.875 C182.5 167.5, 182.5 157.5, 184.75 144.75" fill="none" stroke="black" stroke-width="2.209708691207961"/>
<path d="M124.375 111.125 C124.75 106, 124.75 103.5, 124.75 100.25" fill="none" stroke="black" stroke-width="2.209708691207961"/>
<path d="M124.375 111.125 C116.5 106, 110.25 99.75, 104.25 91" fill="none" stroke="black" stroke-width="2.209708691207961"/>
<path d="M104.25 91 C109.125 87.875, 117.5 94.5, 124.75 100.25" fill="none" stroke="black" stroke-width="2.209708691207961"/>
<path d="M126.5 94 C127.5 90, 128.75 85, 129.375 82.625" fill="none" stroke="black" stroke-width="2.209708691207961"/>
<path d="M126.5 94 C114.375 86.875, 112.5 85, 108.375 80.375" fill="none" stroke="black" stroke-width="2.209708691207961"/>
<path d="M108.375 80.375 C118.125 80.625, 124 81, 129.375 82.625" fill="none" stroke="black" stroke-width="2.209708691207961"/>
<path d="M302.25 126.75 C269.375 195.625, 273.5 209, 311.625 292.125" fill="none" stroke="black" stroke-width="2.209708691207961"/>
<path d="M274.5 266.5 C298.25 284.25, 309.5 299, 325 325" fill="none" stroke="black" stroke-width="2.209708691207961"/>
<path d="M262.5 200 C270.75 222.25, 273 240, 274.5 266.5" fill="none" stroke="black" stroke-width="2.209708691207961"/>
<path d="M200 200 C227.5 200, 243.75 200, 262.5 200" fill="none" stroke="black" stroke-width="2.209708691207961"/>
<path d="M200 137.5 C200 162.5, 200 177.5, 200 200" fill="none" stroke="black" stroke-width="2.209708691207961"/>
<path d="M200 137.5 C222.25 129.25, 240 127, 266.5 125.5" fill="none" stroke="black" stroke-width="2.209708691207961"/>
<path d="M266.5 125.5 C251.25 162.5, 251.25 168.75, 262.5 200" fill="none" stroke="black" stroke-width="2.209708691207961"/>
<path d="M266.5 125.5 C284.25 101.75, 299 90.5, 325 75" fill="none" stroke="black" stroke-width="2.209708691207961"/>
<path d="M325 75 C330.25 95.75, 332 108.75, 329 129.5" fill="none" stroke="black" stroke-width="2.209708691207961"/>
<path d="M329 129.5 C327.25 164.75, 296.5 161.5, 294.25 200" fill="none" stroke="black" stroke-width="2.209708691207961"/>
<path d="M294.25 200 C293.75 206.25, 293.75 218.75, 293.75 231.25" fill="none" stroke="black" stroke-width="2.209708691207961"/>
<path d="M293.75 231.25 C300.75 246.5, 308.5 256.5, 321 270.5" fill="none" stroke="black" stroke-width="2.209708691207961"/>
<path d="M321 270.5 C318 291.25, 319.75 304.25, 325 325" fill="none" stroke="black" stroke-width="2.209708691207961"/>
<path d="M329 129.5 C341.5 143.5, 349.25 153.5, 356.25 168.75" fill="none" stroke="black" stroke-width="2.209708691207961"/>
<path d="M356.25 168.75 C340.625 184.375, 334.375 190.625, 325 200" fill="none" stroke="black" stroke-width="2.209708691207961"/>
<path d="M325 200 C315 200, 302.5 200, 294.25 200" fill="none" stroke="black" stroke-width="2.209708691207961"/>
<path d="M328.125 150.625 C338.75 155.75, 344 162.5, 347.375 174.375" fill="none" stroke="black" stroke-width="2.209708691207961"/>
<path d="M318.125 166.875 C330.25 169.75, 335.25 173.5, 339.375 182.875" fill="none" stroke="black" stroke-width="2.209708691207961"/>
<path d="M306.25 180.75 C320.5 179.5, 323.75 181.75, 331.5 190.75" fill="none" stroke="black" stroke-width="2.209708691207961"/>
<path d="M308.625 204.125 C308.125 208.125, 308.125 211.875, 308.875 213.625" fill="none" stroke="black" stroke-width="2.209708691207961"/>
<path d="M301.125 204.125 C298.75 211.25, 298.75 215, 302.125 220.875" fill="none" stroke="black" stroke-width="2.209708691207961"/>
<path d="M208.375 149.125 C228.75 140, 242.5 141.25, 254.75 145.75" fill="none" stroke="black" stroke-width="2.209708691207961"/>
<path d="M208.375 161.375 C230 155, 237.5 155, 251.875 158.125" fill="none" stroke="black" stroke-width="2.209708691207961"/>
<path d="M208.375 177.125 C228.75 168.75, 238.75 168.75, 252.625 172.375" fill="none" stroke="black" stroke-width="2.209708691207961"/>
<path d="M205.125 189.375 C232.5 182.5, 242.5 182.5, 255.25 184.75" fill="none" stroke="black" stroke-width="2.209708691207961"/>
<path d="M288.875 124.375 C294 124.75, 296.5 124.75, 299.75 124.75" fill="none" stroke="black" stroke-width="2.209708691207961"/>
<path d="M288.875 124.375 C294 116.5, 300.25 110.25, 309 104.25" fill="none" stroke="black" stroke-width="2.209708691207961"/>
<path d="M309 104.25 C312.125 109.125, 305.5 117.5, 299.75 124.75" fill="none" stroke="black" stroke-width="2.209708691207961"/>
<path d="M306 126.5 C310 127.5, 315 128.75, 317.375 129.375" fill="none" stroke="black" stroke-width="2.209708691207961"/>
<path d="M306 126.5 C313.125 114.375, 315 112.5, 319.625 108.375" fill="none" stroke="black" stroke-width="2.209708691207961"/>
<path d="M319.625 108.375 C319.375 118.125, 319 124, 317.375 129.375" fill="none" stroke="black" stroke-width="2.209708691207961"/>
</g>
</svg>