<svg viewbox="0 0 400 400" xmlns="http://www.w3.org/2000/svg">
<defs>
<marker id="red-triangle" markerHeight="6" markerWidth="6" orient="auto" refX="10" refY="5" viewBox="0 0 10 10">
<path d="M 0 0 L 10 5 L 0 10 z" fill="red"/>
</marker>
<marker id="orange-triangle" markerHeight="6" markerWidth="6" orient="auto" refX="10" refY="5" viewBox="0 0 10 10">
<path d="M 0 0 L 10 5 L 0 10 z" fill="orange"/>
</marker>
<marker id="purple-triangle" markerHeight="6" markerWidth="6" orient="auto" refX="10" refY="5" viewBox="0 0 10 10">
<path d="M 0 0 L 10 5 L 0 10 z" fill="purple"/>
</marker>
</defs>
<g transform="scale(1,-1) translate(0,-400)">
<line fill="red" marker-end="url(#red-triangle)" stroke="red" stroke-width="3" x1="0" x2="75" y1="0" y2="250"/>
<line fill="none" marker-end="url(#orange-triangle)" stroke="orange" stroke-width="3" x1="75" x2="325" y1="250" y2="250"/>
<line fill="none" marker-end="url(#purple-triangle)" stroke="purple" stroke-width="3" x1="75" x2="75" y1="250" y2="325"/>
<line fill="none" stroke="gray" stroke-dasharray="3, 5" stroke-width="3" x1="325" x2="325" y1="250" y2="325"/>
<line fill="none" stroke="gray" stroke-dasharray="3, 5" stroke-width="3" x1="75" x2="325" y1="325" y2="325"/>
<line fill="red" marker-end="url(#red-triangle)" stroke="red" stroke-width="3" x1="0" x2="75" y1="0" y2="75"/>
<line fill="none" marker-end="url(#orange-triangle)" stroke="orange" stroke-width="3" x1="75" x2="325" y1="75" y2="75"/>
<line fill="none" marker-end="url(#purple-triangle)" stroke="purple" stroke-width="3" x1="75" x2="75" y1="75" y2="250"/>
<line fill="none" stroke="gray" stroke-dasharray="3, 5" stroke-width="3" x1="325" x2="325" y1="75" y2="250"/>
<line fill="none" stroke="gray" stroke-dasharray="3, 5" stroke-width="3" x1="75" x2="325" y1="250" y2="250"/>
</g>
</svg>
