<svg viewbox="0 0 400 400" xmlns="http://www.w3.org/2000/svg">
<g transform="scale(1,-1) translate(0,-400)">
<polygon fill="none" points="125,135 125,190 130,200 150,200 150,125 130,125" stroke="black" stroke-width="3.125"/>
<polygon fill="none" points="112.5,125 112.5,200 125,225 150,225 150,300 162.5,300 162.5,100 125,100" stroke="black" stroke-width="3.125"/>
<polygon fill="none" points="275,135 275,190 270,200 250,200 250,125 270,125" stroke="black" stroke-width="3.125"/>
<polygon fill="none" points="287.5,125 287.5,200 275,225 250,225 250,300 237.5,300 237.5,100 275,100" stroke="black" stroke-width="3.125"/>
</g>
</svg>