<svg viewbox="0 0 400 400" xmlns="http://www.w3.org/2000/svg">
<g transform="scale(1,-1) translate(0,-400)">
<polygon fill="none" points="108.33333333333334,261.6666666666667 108.33333333333334,280 111.66666666666666,283.33333333333337 125,283.33333333333337 125,258.33333333333337 111.66666666666666,258.33333333333337" stroke="black" stroke-width="1.0416666666666665"/>
<polygon fill="none" points="100,258.33333333333337 100,283.33333333333337 108.33333333333334,291.6666666666667 125,291.6666666666667 125,316.6666666666667 133.33333333333331,316.6666666666667 133.33333333333331,250.00000000000003 108.33333333333334,250.00000000000003" stroke="black" stroke-width="1.0416666666666665"/>
<polygon fill="none" points="221.66666666666666,275 203.33333333333331,275 200,278.33333333333337 200,291.6666666666667 225,291.6666666666667 225,278.33333333333337" stroke="black" stroke-width="1.0416666666666667"/>
<polygon fill="none" points="225,266.6666666666667 200,266.6666666666667 191.66666666666666,275 191.66666666666666,291.6666666666667 166.66666666666663,291.6666666666667 166.66666666666663,300 233.33333333333331,300 233.33333333333331,275" stroke="black" stroke-width="1.0416666666666667"/>
<polygon fill="none" points="291.6666666666667,305 291.6666666666667,286.6666666666667 288.3333333333333,283.3333333333333 275,283.3333333333333 275,308.3333333333333 288.3333333333333,308.3333333333333" stroke="black" stroke-width="1.0416666666666667"/>
<polygon fill="none" points="300,308.3333333333333 300,283.3333333333333 291.6666666666667,275 275,275 275,250 266.6666666666667,250 266.6666666666667,316.6666666666667 291.6666666666667,316.6666666666667" stroke="black" stroke-width="1.0416666666666667"/>
<polygon fill="none" points="94.99999999999999,208.33333333333334 113.33333333333331,208.33333333333334 116.66666666666666,205 116.66666666666666,191.66666666666669 91.66666666666666,191.66666666666669 91.66666666666666,205" stroke="black" stroke-width="1.0416666666666667"/>
<polygon fill="none" points="91.66666666666666,216.66666666666669 116.66666666666666,216.66666666666669 124.99999999999997,208.33333333333334 124.99999999999997,191.66666666666669 150,191.66666666666669 150,183.33333333333334 83.33333333333331,183.33333333333334 83.33333333333331,208.33333333333334" stroke="black" stroke-width="1.0416666666666667"/>
<polygon fill="none" points="208.33333333333331,178.33333333333334 208.33333333333331,196.66666666666669 205,200 191.66666666666666,200 191.66666666666666,175 205,175" stroke="black" stroke-width="1.0416666666666667"/>
<polygon fill="none" points="216.66666666666666,175 216.66666666666666,200 208.33333333333331,208.33333333333334 191.66666666666666,208.33333333333334 191.66666666666666,233.33333333333337 183.33333333333331,233.33333333333337 183.33333333333331,166.66666666666669 208.33333333333331,166.66666666666669" stroke="black" stroke-width="1.0416666666666667"/>
<polygon fill="none" points="305,208.33333333333334 286.66666666666663,208.33333333333334 283.3333333333333,205 283.3333333333333,191.66666666666669 308.3333333333333,191.66666666666669 308.3333333333333,205" stroke="black" stroke-width="1.0416666666666667"/>
<polygon fill="none" points="308.3333333333333,216.66666666666669 283.3333333333333,216.66666666666669 275,208.33333333333334 275,191.66666666666669 250,191.66666666666669 250,183.33333333333334 316.6666666666667,183.33333333333334 316.6666666666667,208.33333333333334" stroke="black" stroke-width="1.0416666666666667"/>
<polygon fill="none" points="108.33333333333331,138.33333333333334 108.33333333333331,120 111.66666666666666,116.66666666666667 124.99999999999997,116.66666666666667 124.99999999999997,141.66666666666669 111.66666666666666,141.66666666666669" stroke="black" stroke-width="1.0416666666666667"/>
<polygon fill="none" points="99.99999999999999,141.66666666666669 99.99999999999999,116.66666666666667 108.33333333333331,108.33333333333334 124.99999999999997,108.33333333333334 124.99999999999997,83.33333333333333 133.33333333333331,83.33333333333333 133.33333333333331,150 108.33333333333331,150" stroke="black" stroke-width="1.0416666666666667"/>
<polygon fill="none" points="178.33333333333331,108.33333333333334 196.66666666666666,108.33333333333334 200,111.66666666666667 200,125 174.99999999999997,125 174.99999999999997,111.66666666666667" stroke="black" stroke-width="1.0416666666666667"/>
<polygon fill="none" points="174.99999999999997,100 200,100 208.33333333333331,108.33333333333334 208.33333333333331,125 233.33333333333331,125 233.33333333333331,133.33333333333334 166.66666666666666,133.33333333333334 166.66666666666666,108.33333333333334" stroke="black" stroke-width="1.0416666666666667"/>
<polygon fill="none" points="275,95 275,113.33333333333334 278.3333333333333,116.66666666666667 291.6666666666667,116.66666666666667 291.6666666666667,91.66666666666667 278.3333333333333,91.66666666666667" stroke="black" stroke-width="1.0416666666666667"/>
<polygon fill="none" points="266.6666666666667,91.66666666666667 266.6666666666667,116.66666666666667 275,125 291.6666666666667,125 291.6666666666667,150 300,150 300,83.33333333333333 275,83.33333333333333" stroke="black" stroke-width="1.0416666666666667"/>
</g>
</svg>