<svg viewbox="0 0 400 400" xmlns="http://www.w3.org/2000/svg">
<g transform="scale(1,-1) translate(0,-400)">
<polygon fill="none" points="125,230 125,257.5 130,262.5 150,262.5 150,225 130,225" stroke="black" stroke-width="1.5625"/>
<polygon fill="none" points="112.5,225 112.5,262.5 125,275 150,275 150,312.5 162.5,312.5 162.5,212.5 125,212.5" stroke="black" stroke-width="1.5625"/>
<polygon fill="none" points="275,230 275,257.5 270,262.5 250,262.5 250,225 270,225" stroke="black" stroke-width="1.5625"/>
<polygon fill="none" points="287.5,225 287.5,262.5 275,275 250,275 250,312.5 237.5,312.5 237.5,212.5 275,212.5" stroke="black" stroke-width="1.5625"/>
<polygon fill="none" points="170,125 142.5,125 137.5,130 137.5,150 175,150 175,130" stroke="black" stroke-width="1.5625"/>
<polygon fill="none" points="175,112.5 137.5,112.5 125,125 125,150 87.5,150 87.5,162.5 187.5,162.5 187.5,125" stroke="black" stroke-width="1.5625"/>
<polygon fill="none" points="230,125 257.5,125 262.5,130 262.5,150 225,150 225,130" stroke="black" stroke-width="1.5625"/>
<polygon fill="none" points="225,112.5 262.5,112.5 275,125 275,150 312.5,150 312.5,162.5 212.5,162.5 212.5,125" stroke="black" stroke-width="1.5625"/>
</g>
</svg>